<?xml version="1.0" encoding="UTF-8"?>
<!DOCTYPE svg PUBLIC "-//W3C//DTD SVG 1.1//EN" "http://www.w3.org/Graphics/SVG/1.1/DTD/svg11.dtd">
<!-- Creator: CorelDRAW X7 -->
<svg xmlns="http://www.w3.org/2000/svg" xml:space="preserve" width="544.223mm" height="78.5758mm" version="1.1" style="shape-rendering:geometricPrecision; text-rendering:geometricPrecision; image-rendering:optimizeQuality; fill-rule:evenodd; clip-rule:evenodd"
viewBox="0 0 60461 8730"
 xmlns:xlink="http://www.w3.org/1999/xlink">
 <defs>
  <style type="text/css">
   <![CDATA[
    .fil4 {fill:#EDB512}
    .fil0 {fill:#FEFEFE;fill-rule:nonzero}
    .fil3 {fill:#009540;fill-rule:nonzero}
    .fil2 {fill:#3342B5;fill-rule:nonzero}
    .fil1 {fill:#D42E12;fill-rule:nonzero}
   ]]>
  </style>
 </defs>
 <g id="Layer_x0020_1">
  <metadata id="CorelCorpID_0Corel-Layer"/>
  <polygon class="fil0" points="37206,8607 37113,8607 37113,318 37206,318 "/>
  <path class="fil0" d="M7791 8216c69,0 124,-18 164,-52 40,-35 60,-79 60,-134l0 -3c0,-61 -20,-107 -61,-138 -40,-31 -95,-47 -163,-47l-212 0 0 374 212 0zm-392 -538l408 0c60,0 114,8 163,24 49,17 90,40 124,71 34,30 60,67 78,109 19,42 28,89 28,142l0 3c0,58 -11,109 -33,152 -22,44 -51,81 -89,110 -37,30 -81,52 -131,68 -51,15 -105,23 -162,23l-206 0 0 332 -180 0 0 -1034z"/>
  <path class="fil0" d="M9012 8301l-179 -413 -177 413 356 0zm-260 -630l168 0 455 1041 -192 0 -105 -250 -488 0 -107 250 -186 0 455 -1041z"/>
  <path class="fil0" d="M9999 8191c65,0 117,-16 156,-47 38,-31 57,-74 57,-127l0 -3c0,-56 -18,-99 -56,-128 -38,-29 -90,-44 -158,-44l-266 0 0 349 267 0zm-447 -513l461 0c65,0 123,9 173,27 50,19 92,44 125,76 28,29 49,62 64,99 15,38 22,79 22,124l0 3c0,43 -6,81 -19,115 -12,34 -29,64 -50,90 -22,26 -48,48 -78,66 -30,19 -63,33 -100,42l279 392 -214 0 -255 -361 -2 0 -226 0 0 361 -180 0 0 -1034z"/>
  <path class="fil0" d="M11246 8301l-179 -413 -177 413 356 0zm-260 -630l168 0 455 1041 -192 0 -105 -250 -488 0 -107 250 -186 0 455 -1041z"/>
  <path class="fil0" d="M12277 8730c-81,0 -154,-14 -220,-41 -66,-27 -123,-65 -169,-112 -47,-48 -83,-104 -109,-169 -26,-64 -38,-134 -38,-210l0 -3c0,-72 13,-140 39,-205 26,-65 63,-122 111,-171 47,-49 104,-87 169,-116 66,-28 137,-43 215,-43 46,0 87,4 124,10 36,6 71,15 102,27 32,12 61,27 90,44 28,17 55,37 82,60l-116 137c-19,-17 -40,-32 -60,-46 -21,-14 -43,-25 -65,-34 -23,-10 -48,-17 -75,-23 -27,-5 -57,-8 -89,-8 -47,0 -91,10 -132,30 -41,20 -77,46 -107,79 -30,33 -53,72 -71,116 -17,45 -25,91 -25,141l0 3c0,53 8,102 25,148 16,45 40,84 71,117 31,32 68,58 111,77 42,18 90,28 143,28 49,0 95,-8 138,-22 43,-14 80,-33 111,-57l0 -195 -264 0 0 -158 440 0 0 435c-26,21 -54,42 -85,62 -31,19 -64,36 -100,51 -36,15 -75,27 -116,35 -42,8 -85,13 -130,13z"/>
  <path class="fil0" d="M13368 8728c-67,0 -128,-10 -182,-29 -54,-19 -100,-48 -139,-86 -38,-39 -67,-86 -88,-143 -21,-56 -31,-122 -31,-197l0 -595 180 0 0 588c0,96 23,170 70,220 46,50 111,75 193,75 81,0 145,-24 192,-72 46,-48 69,-120 69,-216l0 -595 180 0 0 586c0,77 -10,145 -31,203 -21,58 -51,106 -90,145 -38,39 -85,68 -139,87 -55,19 -116,29 -184,29z"/>
  <path class="fil0" d="M14688 8301l-179 -413 -177 413 356 0zm-260 -630l169 0 454 1041 -192 0 -104 -250 -489 0 -107 250 -186 0 455 -1041z"/>
  <polygon class="fil0" points="15533,8304 15122,7678 15336,7678 15626,8136 15918,7678 16126,7678 15716,8300 15716,8712 15533,8712 "/>
  <path class="fil0" d="M8475 2163c9,3 36,46 39,64 0,33 30,290 30,302 0,45 -12,72 -27,72 -27,0 -78,-27 -93,-72 -30,-97 -85,-182 -124,-215 -79,-69 -157,-93 -254,-93 -114,0 -289,102 -289,296 0,160 123,259 398,425 438,263 456,471 456,616 0,157 -94,344 -275,450 -102,63 -281,109 -428,109 -218,0 -314,-28 -453,-79 -21,-9 -82,-69 -85,-84 -27,-106 -54,-233 -54,-342 0,-21 36,-66 51,-66 27,0 76,69 124,163 97,193 260,296 429,296 108,0 289,-91 289,-272 0,-124 -63,-238 -320,-410 -335,-221 -492,-381 -492,-656 0,-187 97,-335 191,-407 105,-85 247,-145 498,-145 132,0 295,33 389,48z"/>
  <path class="fil0" d="M9776 3220c-42,-133 -163,-459 -211,-583 -6,-24 -27,-12 -36,12 -58,145 -197,505 -209,565 -6,21 12,36 24,36 115,-3 326,-6 420,-3 3,0 18,-12 12,-27zm39 -1045c31,67 85,233 115,320 169,480 365,1006 432,1169 96,241 172,277 259,305 52,15 82,36 82,57 0,21 -33,48 -100,48 -66,0 -329,-12 -404,-12 -100,0 -257,6 -335,6 -55,0 -97,-18 -97,-48 0,-15 21,-39 79,-54 117,-31 123,-73 123,-115 0,-54 -57,-211 -126,-405 -3,-12 -46,-51 -55,-51 -395,-3 -483,9 -516,9 -9,0 -27,21 -33,33 -103,260 -115,341 -115,393 0,72 36,108 139,136 63,15 87,30 87,63 0,21 -36,39 -93,39 -54,0 -130,-6 -242,-6 -117,0 -244,12 -289,12 -79,0 -97,-21 -97,-39 0,-24 9,-42 78,-60 154,-40 188,-106 272,-275 76,-142 396,-978 516,-1262 0,0 15,-39 19,-51 3,-9 12,-24 24,-40 36,-42 145,-160 166,-193 18,-27 42,-39 57,-39 18,0 30,3 54,60z"/>
  <path class="fil0" d="M10887 2157c81,0 251,9 338,9 118,0 329,-15 402,-15 75,0 99,15 99,36 0,34 -39,58 -63,64 -157,39 -181,87 -184,121 -22,157 -25,465 -25,908 0,197 0,423 13,529 9,87 108,117 114,117 46,9 154,18 233,18 54,0 160,-6 217,-21 27,-6 60,-15 79,-33 39,-39 120,-118 202,-250 21,-34 60,-61 81,-61 25,0 28,36 12,82 -27,87 -81,305 -99,374 -3,9 -52,48 -67,48 -51,0 -317,-21 -926,-21 -118,0 -357,18 -474,18 -55,0 -94,-12 -94,-39 0,-21 30,-51 79,-60 166,-31 187,-82 199,-221 6,-75 15,-317 15,-748 0,-375 0,-450 -3,-550 -3,-121 -18,-163 -154,-199 -57,-15 -85,-39 -85,-60 0,-34 40,-46 91,-46z"/>
  <path class="fil0" d="M12602 2151c126,0 262,15 371,15 112,0 308,-15 374,-15 58,0 88,24 88,49 0,24 -36,51 -94,63 -108,21 -136,60 -154,178 -12,100 -12,377 -12,803 0,353 73,447 172,546 82,82 281,121 335,121 212,0 435,-57 511,-383 36,-160 51,-417 51,-870 0,-196 -9,-211 -15,-244 -12,-79 -76,-127 -203,-160 -30,-9 -87,-30 -87,-64 0,-18 33,-39 87,-39 70,0 191,15 287,15 121,0 199,-15 284,-15 48,0 76,24 76,49 0,18 -43,45 -85,54 -154,33 -193,97 -193,284 0,148 -18,519 -24,676 -25,501 -181,685 -396,809 -139,78 -287,94 -401,94 -275,0 -468,-85 -580,-188 -169,-157 -238,-320 -238,-791 0,-126 -13,-706 -16,-742 -6,-58 -30,-112 -144,-136 -34,-9 -88,-33 -88,-60 0,-25 39,-49 94,-49z"/>
  <path class="fil0" d="M15478 2293c-15,9 -21,27 -21,42 -6,91 -12,248 -12,514l0 434c0,209 3,351 12,483 6,64 21,91 61,130 42,39 148,82 178,82 117,0 235,-34 398,-169 184,-154 266,-462 266,-722 0,-190 -64,-438 -199,-601 -124,-145 -345,-232 -550,-232 -54,0 -87,15 -133,39zm1063 136c163,157 287,405 287,655 0,426 -266,725 -474,839 -178,103 -432,163 -676,163 -124,0 -441,-9 -610,-15 -109,-3 -178,-3 -227,-3 -66,0 -102,-27 -102,-51 0,-24 48,-48 84,-54 175,-25 193,-58 203,-351 6,-178 9,-314 6,-419 -3,-151 6,-480 -9,-658 -16,-191 -25,-245 -182,-269 -30,-6 -72,-33 -72,-54 0,-25 42,-46 85,-46l193 0c145,0 498,-24 703,-24 420,0 673,178 791,287z"/>
  <path class="fil0" d="M18310 2248c-24,0 -70,18 -79,27 -9,9 -21,39 -24,109 -3,60 -3,431 -6,776 0,271 3,443 3,516 3,178 6,250 193,293 61,12 85,39 85,66 0,24 -48,45 -91,45 -78,0 -283,-18 -413,-18 -91,0 -251,9 -341,9 -82,0 -127,-12 -127,-51 0,-21 48,-48 78,-57 136,-34 175,-73 187,-218 10,-108 19,-281 19,-435 0,-96 0,-790 -6,-869 -9,-106 -37,-157 -200,-178 -30,-3 -60,-27 -60,-45 0,-24 27,-46 63,-52 18,-3 73,-3 100,-3 226,0 480,-27 613,-27 293,0 501,45 628,175 142,139 175,299 175,408 0,235 -103,374 -190,450 -79,66 -260,135 -372,135 -33,0 -120,-6 -154,-18 -45,-21 -69,-36 -69,-66 0,-12 24,-33 48,-33l30 0c112,0 281,-157 281,-453 0,-227 -142,-486 -371,-486z"/>
  <path class="fil0" d="M20731 1544c72,37 160,97 160,139 0,27 -45,73 -85,94 -196,100 -353,190 -504,241 -21,6 -90,28 -121,-3 -18,-15 16,-69 43,-99 130,-121 250,-242 389,-347 27,-22 94,-34 118,-25zm-1371 607c127,0 263,15 372,15 111,0 308,-15 374,-15 57,0 88,24 88,49 0,24 -37,51 -94,63 -109,21 -136,60 -154,178 -12,100 -12,377 -12,803 0,353 72,447 172,547 82,81 281,120 335,120 211,0 435,-57 510,-383 37,-160 52,-417 52,-870 0,-196 -9,-211 -15,-244 -13,-79 -76,-127 -203,-160 -30,-9 -87,-30 -87,-64 0,-18 33,-39 87,-39 70,0 190,15 287,15 121,0 199,-15 284,-15 48,0 75,24 75,49 0,18 -42,45 -84,54 -154,33 -193,97 -193,284 0,148 -19,519 -25,676 -24,501 -181,685 -395,809 -139,78 -287,94 -402,94 -274,0 -468,-85 -579,-188 -169,-157 -239,-320 -239,-791 0,-126 -12,-706 -15,-742 -6,-58 -30,-112 -145,-136 -33,-9 -87,-33 -87,-60 0,-25 39,-49 93,-49z"/>
  <path class="fil0" d="M22536 3144c-60,-36 -133,-57 -229,-57 -28,0 -76,9 -88,21 -12,9 -27,27 -27,169 0,64 12,411 15,492 0,28 15,76 33,97 45,48 121,103 184,103 163,0 323,-200 323,-435 0,-172 -84,-320 -211,-390zm-217 -884c-18,0 -64,9 -94,18 -9,3 -24,27 -27,48 -6,49 -6,109 -6,628 0,12 18,36 33,36 94,0 248,-12 317,-66 94,-69 136,-163 136,-278 0,-253 -175,-386 -359,-386zm522 721c-9,3 -6,34 3,34 235,96 356,250 356,498 0,190 -118,335 -259,431 -145,100 -438,130 -544,130 -84,0 -435,-6 -570,-9 -127,-3 -200,3 -248,3 -60,0 -100,-24 -100,-51 0,-30 55,-48 88,-54 169,-37 187,-82 199,-185 6,-63 27,-353 27,-948 0,-256 -12,-401 -21,-443 -15,-67 -39,-85 -190,-118 -39,-9 -75,-27 -75,-63 0,-25 45,-40 84,-40l196 0c97,0 516,-21 640,-21 175,0 350,33 441,91 148,90 211,214 211,368 0,226 -166,323 -238,377z"/>
  <path class="fil0" d="M23484 2157c81,0 250,9 338,9 118,0 329,-15 401,-15 76,0 100,15 100,36 0,34 -39,58 -63,64 -157,39 -182,87 -184,121 -22,157 -25,465 -25,908 0,197 0,423 12,529 10,87 109,117 115,117 45,9 154,18 233,18 54,0 160,-6 217,-21 27,-6 60,-15 78,-33 40,-39 121,-118 203,-250 21,-34 60,-61 81,-61 24,0 27,36 12,82 -27,87 -81,305 -99,374 -3,9 -52,48 -67,48 -51,0 -317,-21 -927,-21 -117,0 -356,18 -473,18 -55,0 -94,-12 -94,-39 0,-21 30,-51 78,-60 166,-31 188,-82 200,-221 6,-75 15,-317 15,-748 0,-375 0,-450 -3,-550 -3,-121 -18,-163 -154,-199 -58,-15 -85,-39 -85,-60 0,-34 39,-46 91,-46z"/>
  <path class="fil0" d="M25374 2495c-10,-144 -10,-193 -148,-229 -76,-21 -97,-42 -97,-66 0,-25 48,-46 109,-46 93,0 253,12 353,12 148,0 269,-12 374,-12 52,0 103,15 103,46 0,33 -48,57 -100,66 -139,24 -154,103 -160,181 -3,60 -9,127 -9,607 0,462 3,567 9,655 15,184 33,211 193,257 55,15 85,36 85,69 0,36 -63,42 -100,42 -102,-3 -305,-18 -452,-15 -88,0 -209,9 -320,9 -79,0 -103,-21 -103,-54 0,-21 27,-42 93,-60 133,-34 157,-106 163,-230 7,-121 13,-429 13,-685 0,-139 3,-423 -6,-547z"/>
  <path class="fil0" d="M27798 2166c69,18 126,28 211,37 21,3 42,42 42,75l15 287c3,63 -18,124 -54,124 -18,0 -45,-37 -63,-85 -34,-87 -73,-163 -127,-208 -112,-103 -269,-181 -432,-181 -474,0 -661,365 -661,827 0,202 36,383 103,516 163,326 401,435 633,435 31,0 176,-6 275,-64 103,-60 184,-142 251,-265 39,-70 63,-103 93,-103 34,0 31,85 21,118 -18,78 -57,196 -75,244 -9,27 -63,82 -115,103 -39,15 -229,91 -519,91 -459,0 -776,-197 -900,-339 -114,-132 -253,-338 -253,-670 0,-374 202,-622 329,-724 257,-212 583,-269 812,-269 157,0 305,21 414,51z"/>
  <path class="fil0" d="M29271 3220c-43,-133 -163,-459 -212,-583 -6,-24 -27,-12 -36,12 -57,145 -196,505 -208,565 -6,21 12,36 24,36 115,-3 326,-6 420,-3 3,0 18,-12 12,-27zm39 -1045c30,67 84,233 115,320 169,480 365,1006 431,1169 97,241 172,277 260,305 51,15 81,36 81,57 0,21 -33,48 -99,48 -67,0 -329,-12 -405,-12 -99,0 -256,6 -335,6 -54,0 -96,-18 -96,-48 0,-15 21,-39 78,-54 118,-31 124,-73 124,-115 0,-54 -57,-211 -127,-405 -3,-12 -45,-51 -54,-51 -396,-3 -483,9 -516,9 -10,0 -28,21 -34,33 -102,260 -114,341 -114,393 0,72 36,108 138,136 64,15 88,30 88,63 0,21 -36,39 -94,39 -54,0 -129,-6 -241,-6 -118,0 -245,12 -290,12 -78,0 -96,-21 -96,-39 0,-24 9,-42 78,-60 154,-40 187,-106 272,-275 75,-142 395,-978 516,-1262 0,0 15,-39 18,-51 3,-9 12,-24 24,-40 36,-42 145,-160 166,-193 18,-27 43,-39 58,-39 18,0 30,3 54,60z"/>
  <path class="fil0" d="M30792 2145c85,0 278,21 417,21 84,0 202,-6 320,-6 48,0 81,18 81,37 0,21 -27,57 -72,66 -97,18 -118,69 -79,148 36,66 196,356 323,576 6,10 33,3 43,-9 33,-54 232,-371 310,-528 46,-87 55,-157 -96,-190 -42,-9 -91,-36 -91,-73 0,-21 43,-30 67,-30 75,0 139,9 208,9 72,0 323,-18 371,-18 46,0 73,6 73,33 0,31 -39,58 -88,73 -142,36 -193,109 -293,229 -120,148 -314,444 -401,589 -3,6 -27,63 -27,151 0,169 9,480 21,580 9,84 24,126 181,169 60,15 81,39 81,60 0,24 -36,45 -96,45 -42,0 -299,-15 -365,-15 -212,0 -408,21 -447,21 -42,0 -82,-9 -82,-39 0,-18 27,-48 91,-66 157,-49 193,-88 196,-136 9,-145 3,-483 3,-568 0,-36 -21,-148 -27,-163 -51,-102 -227,-380 -350,-585 -130,-212 -196,-257 -281,-278 -51,-12 -88,-33 -88,-61 0,-30 46,-42 97,-42z"/>
  <path class="fil0" d="M8400 6008c-61,-36 -133,-58 -230,-58 -27,0 -75,9 -87,22 -12,9 -27,27 -27,169 0,63 12,410 15,492 0,27 15,75 33,96 45,49 121,103 184,103 163,0 323,-199 323,-435 0,-172 -84,-320 -211,-389zm-217 -885c-19,0 -64,9 -94,18 -9,3 -24,28 -27,49 -6,48 -6,108 -6,628 0,12 18,36 33,36 94,0 247,-12 317,-67 93,-69 136,-163 136,-277 0,-254 -175,-387 -359,-387zm522 722c-9,3 -6,33 3,33 235,97 356,251 356,498 0,190 -118,335 -260,432 -145,99 -437,130 -543,130 -85,0 -435,-6 -571,-9 -126,-3 -199,3 -247,3 -60,0 -100,-25 -100,-52 0,-30 55,-48 88,-54 169,-36 187,-82 199,-184 6,-64 27,-353 27,-948 0,-257 -12,-402 -21,-444 -15,-66 -39,-84 -190,-118 -39,-9 -76,-27 -76,-63 0,-24 46,-39 85,-39l196 0c97,0 516,-21 640,-21 175,0 350,33 441,90 148,91 211,214 211,368 0,227 -166,323 -238,378z"/>
  <path class="fil0" d="M9553 5359c-9,-145 -9,-193 -148,-230 -75,-21 -97,-42 -97,-66 0,-24 49,-45 109,-45 94,0 254,12 353,12 148,0 269,-12 375,-12 51,0 102,15 102,45 0,33 -48,57 -99,66 -139,24 -154,103 -160,181 -3,61 -9,127 -9,607 0,462 3,568 9,655 15,184 33,212 193,257 54,15 84,36 84,69 0,37 -63,43 -99,43 -103,-3 -305,-19 -453,-15 -88,0 -208,9 -320,9 -79,0 -103,-22 -103,-55 0,-21 27,-42 94,-60 133,-33 157,-106 163,-230 6,-120 12,-428 12,-685 0,-139 3,-422 -6,-546z"/>
  <path class="fil0" d="M11597 5030c99,0 220,-15 262,-24 12,-4 37,21 40,42 3,12 3,281 3,341 0,42 -25,87 -52,87 -27,0 -54,-45 -60,-78 -39,-172 -133,-223 -190,-235 -46,-10 -136,-22 -417,-22 -12,0 -33,12 -36,88 -3,72 -12,423 -12,643 0,9 15,33 36,33l260 0c181,0 169,-15 226,-142 21,-45 42,-84 73,-84 27,0 36,51 33,93 -6,82 -12,136 -12,203 0,78 3,132 12,214 6,54 -15,93 -43,93 -24,0 -51,-36 -60,-69 -39,-127 -87,-157 -175,-166 -97,-9 -205,-9 -305,-9 -12,0 -45,36 -45,42 -9,97 -6,305 -3,393 3,63 -6,175 6,244 3,24 33,70 69,79 46,9 133,15 230,15 114,0 193,3 271,-30 88,-37 172,-118 233,-224 48,-81 78,-115 106,-115 36,0 27,70 27,91 0,24 -91,302 -118,362 -12,27 -70,43 -85,43 -33,0 -920,-12 -1017,-12 -220,0 -241,15 -344,15 -57,0 -109,-9 -109,-40 0,-30 39,-54 94,-66 154,-36 184,-72 196,-236 9,-123 24,-295 24,-667 0,-356 3,-528 -3,-616 -6,-99 -27,-169 -157,-190 -63,-12 -99,-24 -99,-60 0,-27 57,-45 96,-45 142,0 453,9 592,9l453 0z"/>
  <path class="fil0" d="M12318 5015c67,0 347,15 501,15 15,0 64,33 70,39 45,54 132,148 259,290 157,184 713,745 852,887 12,12 24,-9 24,-15 15,-84 6,-435 6,-601 0,-99 -9,-259 -18,-332 -9,-60 -43,-123 -184,-160 -64,-15 -109,-30 -109,-69 0,-21 30,-42 90,-42 73,0 136,3 182,3 159,0 298,-18 377,-18 51,0 72,21 72,45 0,15 -24,42 -75,60 -172,58 -169,127 -184,230 -12,105 -31,954 -31,1083 0,124 19,411 19,502 0,27 -46,54 -55,54 -72,0 -148,-85 -175,-124 -60,-81 -121,-145 -202,-244 -284,-351 -761,-840 -1026,-1151 -16,-18 -34,12 -34,19 -6,81 -12,144 -15,383 -6,492 -9,610 12,782 9,75 43,133 190,178 61,18 88,39 88,57 0,37 -42,49 -100,49 -87,0 -129,-9 -235,-9 -66,0 -281,12 -332,12 -42,0 -79,-22 -79,-43 0,-36 43,-48 73,-57 136,-39 214,-69 223,-296 15,-386 52,-896 52,-1096 0,-127 -3,-166 -16,-181 -39,-48 -54,-112 -220,-145 -33,-6 -84,-33 -84,-57 0,-24 39,-48 84,-48z"/>
  <path class="fil0" d="M15735 5030c100,0 221,-15 263,-24 12,-4 36,21 39,42 3,12 3,281 3,341 0,42 -24,87 -51,87 -27,0 -54,-45 -61,-78 -39,-172 -132,-223 -190,-235 -45,-10 -136,-22 -416,-22 -12,0 -34,12 -37,88 -3,72 -12,423 -12,643 0,9 15,33 37,33l259 0c181,0 169,-15 227,-142 21,-45 42,-84 72,-84 27,0 36,51 33,93 -6,82 -12,136 -12,203 0,78 3,132 12,214 6,54 -15,93 -42,93 -24,0 -51,-36 -60,-69 -40,-127 -88,-157 -175,-166 -97,-9 -206,-9 -305,-9 -12,0 -46,36 -46,42 -9,97 -6,305 -3,393 3,63 -6,175 6,244 3,24 34,70 70,79 45,9 133,15 229,15 115,0 193,3 272,-30 88,-37 172,-118 232,-224 49,-81 79,-115 106,-115 36,0 27,70 27,91 0,24 -90,302 -118,362 -12,27 -69,43 -84,43 -33,0 -921,-12 -1017,-12 -221,0 -242,15 -345,15 -57,0 -108,-9 -108,-40 0,-30 39,-54 93,-66 154,-36 185,-72 197,-236 9,-123 24,-295 24,-667 0,-356 3,-528 -3,-616 -6,-99 -27,-169 -157,-190 -64,-12 -100,-24 -100,-60 0,-27 57,-45 97,-45 142,0 453,9 591,9l453 0z"/>
  <path class="fil0" d="M17565 5027c9,3 36,45 39,63 0,33 30,290 30,302 0,45 -12,72 -27,72 -27,0 -79,-27 -94,-72 -30,-97 -84,-181 -123,-214 -79,-70 -157,-94 -254,-94 -115,0 -290,103 -290,296 0,160 124,259 399,426 437,262 455,470 455,615 0,157 -93,344 -274,450 -103,64 -281,109 -429,109 -217,0 -314,-27 -453,-79 -21,-9 -81,-69 -84,-84 -27,-106 -55,-233 -55,-341 0,-21 37,-67 52,-67 27,0 75,70 123,163 97,193 260,296 429,296 109,0 290,-90 290,-272 0,-123 -63,-238 -320,-410 -335,-220 -492,-380 -492,-655 0,-187 96,-335 190,-408 106,-84 248,-145 498,-145 133,0 296,34 390,49z"/>
  <path class="fil0" d="M19503 5021c163,-12 205,-25 244,-46 24,-15 39,-27 51,-27 16,0 46,39 34,82 -22,78 -58,259 -61,353 0,27 -21,87 -60,87 -21,0 -42,-15 -57,-93 -37,-181 -73,-215 -206,-215 -81,0 -247,4 -341,16 -21,3 -30,21 -30,36 0,139 -6,314 -6,573 0,348 6,686 18,855 6,78 33,148 245,190 42,9 69,48 69,63 0,24 -48,43 -82,43 -24,0 -443,-12 -498,-12 -66,0 -338,18 -392,18 -57,0 -97,-12 -97,-37 0,-33 40,-60 73,-69 187,-48 205,-82 217,-287 12,-178 27,-773 27,-1002 0,-172 -3,-296 -3,-347 0,-30 -27,-43 -36,-43 -54,-9 -251,-12 -326,-12 -15,0 -109,37 -139,70 -39,45 -69,102 -106,160 -39,60 -54,90 -69,90 -36,0 -51,-39 -51,-69 0,-57 51,-269 57,-411 0,-9 27,-66 51,-66 22,0 40,27 52,48 9,15 69,36 136,43 57,6 534,18 649,18 175,0 549,-3 637,-9z"/>
  <path class="fil0" d="M20988 6083c-42,-133 -163,-459 -212,-582 -6,-25 -27,-12 -36,12 -57,145 -196,504 -208,564 -6,21 12,36 24,36 115,-3 326,-6 420,-3 3,0 18,-12 12,-27zm39 -1044c30,66 85,232 115,320 169,480 365,1005 431,1168 97,242 172,278 260,305 51,15 82,36 82,57 0,21 -34,49 -100,49 -66,0 -329,-12 -405,-12 -99,0 -256,6 -335,6 -54,0 -96,-19 -96,-49 0,-15 21,-39 78,-54 118,-30 124,-73 124,-115 0,-54 -57,-211 -127,-404 -3,-12 -45,-52 -54,-52 -396,-3 -483,9 -516,9 -9,0 -28,22 -34,34 -102,259 -114,341 -114,392 0,72 36,109 139,136 63,15 87,30 87,63 0,21 -36,40 -93,40 -55,0 -130,-6 -242,-6 -118,0 -244,12 -290,12 -78,0 -96,-22 -96,-40 0,-24 9,-42 78,-60 154,-39 187,-106 272,-275 75,-142 395,-978 516,-1262 0,0 15,-39 18,-51 3,-9 12,-24 24,-39 36,-42 145,-160 166,-193 18,-28 43,-40 58,-40 18,0 30,3 54,61z"/>
  <path class="fil0" d="M23074 5217c-70,-73 -145,-100 -218,-100 -12,0 -81,9 -102,21 -12,9 -30,46 -33,64 -10,99 -25,600 -13,694 3,15 25,30 37,30 145,0 274,-42 302,-60 81,-64 153,-160 153,-320 0,-82 -15,-214 -126,-329zm359 646c-12,12 -78,45 -133,72 -15,6 -9,27 -3,40 70,144 317,564 453,727 81,94 169,121 241,136 31,6 58,30 58,42 0,18 -30,43 -55,49 -51,21 -190,27 -217,27 -338,0 -432,-124 -483,-197 -72,-102 -229,-356 -359,-588 -18,-33 -54,-97 -82,-115 -27,-18 -72,-39 -111,-39 -9,0 -31,12 -34,27 -6,63 -3,474 6,598 13,133 28,157 163,193 52,15 76,36 76,60 0,34 -57,49 -103,49 -99,0 -268,-18 -386,-18 -133,0 -281,12 -314,12 -91,0 -103,-25 -103,-52 0,-15 36,-39 76,-51 142,-42 166,-88 172,-175 24,-296 18,-522 18,-812 0,-254 -6,-501 -12,-568 -6,-54 -30,-118 -175,-151 -43,-9 -79,-33 -79,-57 0,-21 49,-48 91,-48l247 0c109,0 381,-15 544,-15 102,0 383,6 540,135 88,73 157,218 157,354 0,163 -69,256 -193,365z"/>
  <path class="fil0" d="M25781 5027c9,3 37,45 40,63 0,33 30,290 30,302 0,45 -12,72 -27,72 -27,0 -79,-27 -94,-72 -30,-97 -84,-181 -124,-214 -78,-70 -157,-94 -253,-94 -115,0 -290,103 -290,296 0,160 124,259 398,426 438,262 456,470 456,615 0,157 -93,344 -274,450 -103,64 -281,109 -429,109 -217,0 -314,-27 -453,-79 -21,-9 -81,-69 -84,-84 -28,-106 -55,-233 -55,-341 0,-21 36,-67 51,-67 28,0 76,70 124,163 97,193 260,296 429,296 109,0 290,-90 290,-272 0,-123 -64,-238 -320,-410 -335,-220 -492,-380 -492,-655 0,-187 96,-335 190,-408 106,-84 247,-145 498,-145 133,0 296,34 389,49z"/>
  <path class="fil0" d="M26847 5232c-91,87 -199,299 -199,661 0,471 256,969 679,969 127,0 223,-69 266,-112 127,-135 220,-401 220,-709 0,-193 -69,-577 -290,-788 -93,-90 -244,-163 -374,-163 -139,0 -251,91 -302,142zm1437 715c0,381 -154,619 -359,794 -163,133 -423,239 -692,239 -320,0 -591,-115 -784,-314 -167,-172 -263,-408 -263,-694 0,-366 160,-595 383,-770 133,-103 384,-224 655,-224 710,0 1060,529 1060,969z"/>
  <path class="fil0" d="M30107 5030c70,18 127,27 212,36 21,3 42,42 42,75l15 287c3,64 -18,124 -54,124 -18,0 -46,-36 -64,-85 -33,-87 -72,-163 -127,-208 -111,-103 -268,-181 -431,-181 -474,0 -661,365 -661,827 0,202 36,384 102,516 163,326 402,435 634,435 30,0 175,-6 275,-63 103,-61 184,-142 250,-266 40,-69 64,-103 94,-103 33,0 30,85 21,118 -18,79 -57,196 -75,245 -9,27 -64,81 -115,102 -39,15 -229,91 -519,91 -459,0 -776,-196 -900,-338 -115,-133 -253,-338 -253,-670 0,-375 202,-622 329,-725 256,-211 582,-269 812,-269 157,0 305,21 413,52z"/>
  <path class="fil0" d="M30910 5359c-9,-145 -9,-193 -148,-230 -75,-21 -96,-42 -96,-66 0,-24 48,-45 108,-45 94,0 254,12 354,12 147,0 268,-12 374,-12 51,0 103,15 103,45 0,33 -49,57 -100,66 -139,24 -154,103 -160,181 -3,61 -9,127 -9,607 0,462 3,568 9,655 15,184 33,212 193,257 54,15 85,36 85,69 0,37 -64,43 -100,43 -103,-3 -305,-19 -453,-15 -87,0 -208,9 -320,9 -78,0 -102,-22 -102,-55 0,-21 27,-42 93,-60 133,-33 157,-106 163,-230 6,-120 12,-428 12,-685 0,-139 3,-422 -6,-546z"/>
  <path class="fil0" d="M32797 6083c-42,-133 -163,-459 -211,-582 -7,-25 -28,-12 -37,12 -57,145 -196,504 -208,564 -6,21 12,36 24,36 115,-3 326,-6 420,-3 3,0 18,-12 12,-27zm39 -1044c30,66 85,232 115,320 169,480 365,1005 432,1168 96,242 172,278 259,305 52,15 82,36 82,57 0,21 -34,49 -100,49 -66,0 -329,-12 -404,-12 -100,0 -257,6 -336,6 -54,0 -96,-19 -96,-49 0,-15 21,-39 78,-54 118,-30 124,-73 124,-115 0,-54 -57,-211 -127,-404 -3,-12 -45,-52 -54,-52 -396,-3 -483,9 -516,9 -9,0 -27,22 -33,34 -103,259 -115,341 -115,392 0,72 36,109 139,136 63,15 87,30 87,63 0,21 -36,40 -93,40 -55,0 -130,-6 -242,-6 -118,0 -244,12 -290,12 -78,0 -96,-22 -96,-40 0,-24 9,-42 78,-60 154,-39 187,-106 272,-275 75,-142 395,-978 516,-1262 0,0 15,-39 18,-51 3,-9 12,-24 24,-39 37,-42 145,-160 166,-193 19,-28 43,-40 58,-40 18,0 30,3 54,61z"/>
  <path class="fil0" d="M33968 5021c82,0 251,9 338,9 118,0 329,-15 402,-15 75,0 99,15 99,36 0,33 -39,57 -63,63 -157,39 -181,88 -184,121 -21,157 -24,465 -24,909 0,196 0,422 12,528 9,87 108,118 114,118 46,9 154,18 233,18 54,0 160,-6 217,-21 27,-6 61,-15 79,-34 39,-39 120,-117 202,-250 21,-33 60,-61 82,-61 24,0 27,37 12,82 -28,88 -82,305 -100,374 -3,9 -51,49 -66,49 -52,0 -317,-21 -927,-21 -118,0 -357,18 -474,18 -55,0 -94,-12 -94,-40 0,-21 30,-51 79,-60 166,-30 187,-82 199,-220 6,-76 15,-317 15,-749 0,-374 0,-450 -3,-550 -3,-120 -18,-163 -154,-199 -57,-15 -84,-39 -84,-60 0,-33 39,-45 90,-45z"/>
  <polygon class="fil0" points="7399,368 7592,368 7907,856 8221,368 8415,368 8415,1401 8234,1401 8234,660 7908,1147 7902,1147 7579,663 7579,1401 7399,1401 "/>
  <polygon class="fil0" points="8691,368 8871,368 8871,1401 8691,1401 "/>
  <polygon class="fil0" points="9148,368 9316,368 9869,1082 9869,368 10049,368 10049,1401 9897,1401 9329,666 9329,1401 9148,1401 "/>
  <polygon class="fil0" points="10325,368 10506,368 10506,1401 10325,1401 "/>
  <path class="fil0" d="M11146 1416c-79,0 -156,-14 -229,-41 -72,-27 -140,-68 -202,-124l109 -130c51,43 101,76 153,99 51,23 109,35 174,35 56,0 100,-12 133,-35 33,-24 50,-56 50,-95l0 -3c0,-19 -3,-35 -10,-49 -6,-15 -18,-28 -35,-41 -17,-13 -41,-25 -71,-35 -30,-11 -70,-22 -118,-33 -55,-13 -104,-27 -147,-43 -43,-17 -79,-36 -108,-59 -29,-24 -52,-52 -67,-85 -15,-34 -23,-74 -23,-121l0 -3c0,-45 9,-85 26,-122 18,-37 42,-69 73,-95 31,-26 68,-46 111,-61 43,-15 90,-22 142,-22 75,0 144,11 204,33 61,22 117,54 171,97l-98 137c-47,-34 -94,-61 -140,-79 -46,-18 -93,-27 -140,-27 -54,0 -95,12 -124,35 -30,24 -45,53 -45,87l0 3c0,20 4,37 11,53 6,15 19,29 37,41 19,12 44,24 76,35 32,11 73,22 122,34 54,14 102,29 144,46 42,16 77,37 105,61 27,24 48,52 63,84 14,32 21,69 21,111l0 3c0,49 -9,92 -27,130 -18,39 -43,71 -75,98 -33,26 -71,47 -117,60 -45,14 -94,21 -149,21z"/>
  <polygon class="fil0" points="11982,536 11654,536 11654,368 12493,368 12493,536 12165,536 12165,1401 11982,1401 "/>
  <polygon class="fil0" points="12685,368 13450,368 13450,531 12865,531 12865,797 13384,797 13384,961 12865,961 12865,1237 13457,1237 13457,1401 12685,1401 "/>
  <path class="fil0" d="M14121 880c65,0 117,-16 156,-47 38,-31 57,-73 57,-127l0 -2c0,-57 -18,-100 -56,-129 -37,-29 -90,-44 -158,-44l-265 0 0 349 266 0zm-447 -512l461 0c65,0 123,9 173,27 50,18 92,43 125,76 28,28 49,61 64,99 15,37 22,79 22,124l0 3c0,42 -6,80 -18,114 -13,34 -30,64 -51,90 -22,27 -48,49 -78,67 -30,18 -63,32 -100,42l280 391 -214 0 -255 -360 -3 0 -225 0 0 360 -181 0 0 -1033z"/>
  <polygon class="fil0" points="14752,368 14933,368 14933,1401 14752,1401 "/>
  <path class="fil0" d="M15706 1252c51,0 98,-10 141,-29 42,-19 79,-45 109,-78 31,-33 54,-72 72,-116 17,-44 25,-91 25,-142l0 -3c0,-50 -8,-97 -25,-142 -18,-45 -42,-84 -72,-117 -31,-33 -68,-59 -111,-79 -44,-19 -91,-29 -142,-29 -51,0 -97,9 -140,29 -43,19 -79,45 -110,78 -30,33 -54,71 -71,116 -17,44 -26,91 -26,141l0 3c0,51 9,98 26,143 17,45 41,84 72,117 31,33 68,59 111,79 43,19 90,29 141,29zm-3 167c-79,0 -152,-14 -218,-42 -66,-28 -123,-66 -170,-115 -47,-48 -84,-104 -111,-169 -26,-64 -40,-133 -40,-206l0 -3c0,-72 14,-141 40,-206 27,-64 64,-121 113,-169 48,-49 105,-88 171,-116 66,-29 139,-43 218,-43 80,0 153,14 219,42 66,28 122,66 170,114 47,49 84,105 110,169 27,65 40,134 40,206l0 3c0,73 -13,142 -40,206 -26,65 -63,121 -112,170 -48,49 -105,88 -171,116 -66,29 -139,43 -219,43z"/>
  <path class="fil0" d="M17292 1237c54,0 104,-8 148,-26 44,-17 82,-41 113,-72 31,-31 55,-68 72,-112 18,-43 26,-89 26,-140l0 -3c0,-50 -8,-97 -26,-140 -17,-44 -41,-81 -72,-112 -31,-32 -69,-56 -113,-74 -44,-18 -94,-27 -148,-27l-204 0 0 706 204 0zm-384 -869l386 0c80,0 155,13 222,39 67,26 126,62 174,108 49,47 87,101 113,163 27,63 40,131 40,203l0 3c0,73 -13,141 -40,204 -26,63 -64,118 -113,164 -48,46 -107,83 -174,109 -67,27 -142,40 -222,40l-386 0 0 -1033z"/>
  <polygon class="fil0" points="18063,368 18828,368 18828,531 18243,531 18243,797 18762,797 18762,961 18243,961 18243,1237 18835,1237 18835,1401 18063,1401 "/>
  <path class="fil1" d="M3263 7037c-195,107 -93,67 -532,-106 0,0 -223,-101 -320,-118 -97,-17 -161,-30 -473,-30 0,0 -470,-31 -738,-177 -123,-67 -208,-127 -363,-270 -48,-44 -210,-172 -173,-206 30,-27 160,57 266,106 104,49 214,95 293,118 233,65 544,152 552,118 10,-37 -355,-117 -547,-194 -130,-52 -374,-161 -635,-452 -262,-291 -296,-764 -296,-764 0,0 21,-42 47,0 25,43 149,377 485,633 0,0 164,107 388,251 0,0 97,12 -76,-114 -173,-127 -207,-121 -534,-498 -39,-44 -183,-269 -288,-494 -141,-301 -370,-331 -309,-372 70,-47 359,135 545,337 185,202 324,498 324,498 0,0 80,42 -9,-114 -88,-156 -130,-291 -379,-536 0,0 -143,-98 -278,-575 0,0 -21,-209 -99,-367 -74,-151 -125,-144 -112,-167 28,-51 228,0 485,616 0,0 162,430 207,417 32,-9 -2,-57 -47,-157 -55,-121 -99,-253 -112,-291 -88,-248 -190,-359 -74,-789 31,-113 109,-234 52,-550 -7,-37 -70,-151 -51,-170 39,-39 153,78 183,339 23,206 17,604 28,873 4,96 23,258 47,249 31,-11 9,-105 7,-213 -2,-97 -24,-900 55,-1155 61,-194 173,-322 310,-465 37,-39 115,-146 132,-197 16,-50 73,-34 69,-1 -4,34 11,118 -170,431 -69,120 -91,356 -169,601 -45,141 -92,304 -61,302 35,-2 204,-600 228,-688 136,-514 570,-883 699,-823 24,11 -14,50 -67,80 0,0 -178,123 -220,334 -43,211 -162,435 -266,594 0,0 -12,47 17,34 30,-12 280,-417 432,-540 151,-122 467,-222 595,-341 93,-87 155,-64 95,21 -59,84 -632,708 -949,843 0,0 -269,148 -398,407 -13,25 -43,77 -36,83 23,18 21,17 80,-85 59,-101 232,-316 401,-367 0,0 223,-54 320,-113 97,-59 145,-119 182,-177 39,-61 98,-81 82,3 -6,33 -42,184 -242,359 -107,93 -210,83 -514,282 -77,50 -217,180 -273,247 -115,137 -217,376 -181,404 29,22 53,-94 137,-235 87,-146 238,-330 518,-453l199 -114c0,0 50,-13 25,38 -25,50 -431,478 -528,567 -97,88 -375,389 -357,822 6,133 41,323 75,315 28,-6 4,-24 -5,-91 -28,-222 -4,-367 87,-571 125,-278 248,-399 265,-320 7,33 -78,32 -74,308 2,180 -20,258 -68,495 -29,141 -73,292 -43,508 22,155 125,508 174,479 26,-15 -48,-138 -64,-211 -34,-150 1,-279 12,-487 11,-203 -31,-249 -31,-249 0,0 3,-63 66,-17 63,47 174,207 208,612 0,0 25,442 217,756 146,237 439,418 456,390 22,-38 -218,-115 -374,-397 -39,-71 -83,-227 -112,-302 -50,-125 17,-162 36,-115 83,205 202,210 358,399 156,190 347,466 482,550 135,85 515,288 515,288 0,0 126,59 160,80 34,21 66,42 51,51z"/>
  <path class="fil2" d="M5439 6378c-136,62 -214,66 -229,65 -16,0 -145,29 -281,25 -136,-4 -189,41 -224,77 -41,41 -151,136 -151,136l66 9c118,-85 253,-106 296,-107 44,-2 152,-7 252,-28 144,-30 145,-42 122,-12 -10,13 -89,71 -209,82 -103,10 -192,18 -232,25 -66,10 -182,60 -182,60 0,0 120,36 158,40 309,36 488,-125 488,-125 0,0 21,-29 66,-74 85,-86 129,-205 60,-173z"/>
  <path class="fil2" d="M5378 5818c83,-60 168,-163 194,-195 26,-33 125,-205 254,-240 14,-4 173,-38 18,41 -127,65 -226,232 -311,340 -52,67 -141,115 -141,115 0,0 -55,23 -62,10 -10,-15 16,-48 48,-71zm707 -240c-64,19 -85,36 -85,36 -142,37 -168,149 -231,219 -33,36 -92,82 -241,142 -134,54 -120,50 -122,51 0,0 -36,17 -60,42l55 1c0,0 116,9 244,-45 80,-34 144,-70 218,-176 33,-46 77,-137 77,-78 1,153 -249,324 -350,335 -33,4 -79,14 -177,19 -88,5 -165,-38 -165,-38 10,-22 0,0 0,0 3,-25 158,-114 241,-148 98,-41 191,-101 239,-154 48,-52 67,-83 104,-139 38,-57 65,-131 100,-172 122,-140 97,-459 38,-432 -26,12 22,112 -68,197 -53,51 -119,55 -183,63 -134,17 -332,344 -358,397 -18,37 -49,65 -74,60 -25,-5 58,-282 76,-327 19,-45 32,-157 33,-186 0,-29 -2,-61 -51,-73 -56,-14 -80,-78 -80,-78 -89,152 -35,266 -25,375 9,109 -35,308 -35,308 121,96 46,203 3,244 -95,91 -227,5 -231,26 -28,183 -171,381 -171,381l249 -24c0,0 20,13 -6,-37 -44,-87 -4,-161 37,-191 77,-57 204,-10 204,-10 0,0 161,100 337,37 149,-53 228,-132 285,-211 90,-125 80,-228 126,-300 27,-42 76,-122 47,-114z"/>
  <path class="fil2" d="M5241 4998c0,0 -37,-28 -50,-63 -82,-208 -98,-197 -113,-167 -37,77 -59,153 -60,190 -2,38 -3,117 2,209 2,29 8,146 -37,249 -45,104 -8,188 0,222 7,34 49,130 49,130 0,0 48,-11 60,-14 14,-3 70,6 70,6 0,0 26,-108 29,-158 2,-36 -2,-99 -17,-198 -21,-141 -15,-182 2,-261 25,-116 65,-145 65,-145z"/>
  <path class="fil2" d="M5665 4972c-85,2 -132,151 -132,151 0,0 -5,22 -53,50 -47,28 -40,76 -43,151 -4,92 -32,138 -67,230 -11,29 -7,31 0,33 25,6 103,-138 151,-203 50,-68 156,-121 156,-121l2 -3c-133,-145 -15,-241 18,-262 33,-20 52,-27 -32,-26z"/>
  <path class="fil2" d="M5548 4974c16,-7 3,-48 3,-48 0,0 -1,-53 -15,-117 -15,-64 -63,-138 -95,-191 -32,-54 -81,-121 -109,-205 -28,-84 4,-241 8,-260 3,-20 -16,-19 -32,-39 -16,-20 -70,-83 -94,-66 -26,17 5,30 -2,123 -2,22 -9,48 -13,86 -4,39 -30,209 21,318 59,126 112,131 181,181 122,87 121,229 147,218z"/>
  <path class="fil2" d="M6233 3803c-22,-10 -67,64 -82,78 -14,13 -79,74 -220,185 -110,87 -150,78 -257,340 -112,274 -75,532 -75,532l14 -3c0,0 50,-112 66,-181 16,-69 71,-222 111,-301 67,-131 171,-256 176,-261 117,-127 93,-90 160,-154 66,-65 52,-32 52,-32 0,0 -62,105 -199,276 -94,119 -83,112 -137,217 -41,82 -103,255 -103,255l-53 163 165 -101c89,-77 125,-135 206,-240 82,-106 151,-229 167,-304 17,-74 79,-436 9,-469z"/>
  <path class="fil2" d="M5475 3855c-54,-54 -73,-88 -97,-70 -33,24 9,101 7,162 -2,61 1,165 -3,220 -5,55 -36,146 2,236 37,89 81,136 111,193 29,54 66,167 66,167 0,0 0,-211 19,-318 19,-106 30,-271 8,-354 -22,-83 -59,-182 -113,-236z"/>
  <path class="fil2" d="M5911 3812c84,40 55,164 55,164 0,0 50,-117 51,-154 1,-36 10,-183 -30,-202 -11,-5 -67,71 -67,71 -47,35 -74,103 -74,103 0,0 24,-2 65,18z"/>
  <path class="fil2" d="M5743 3490c14,16 59,-98 79,-200 8,-43 13,-114 13,-162 1,-33 -11,-90 3,-93 13,-3 16,29 22,77 3,18 7,62 2,123 -3,49 -3,85 -27,151 -21,58 -43,110 -57,132 -12,19 -46,91 -46,91 0,0 -22,55 -21,108 2,52 5,121 5,121 0,0 37,-43 93,-48 0,0 1,-102 1,-130 1,-27 42,-206 62,-260 28,-81 49,-221 14,-385 -9,-45 29,-161 -12,-183 -50,-27 -68,42 -104,199 -11,47 4,176 -7,313 -6,75 -28,138 -20,146z"/>
  <path class="fil3" d="M5743 3490c-3,4 -4,6 -4,6 0,0 2,-2 4,-6z"/>
  <path class="fil2" d="M5581 2745c1,25 -6,79 -6,89 0,5 -10,66 41,295 34,151 21,307 21,330 1,46 -2,56 -1,84 0,26 -24,54 -32,-19 -4,-40 -8,-259 -39,-385 -58,-239 10,-479 16,-394zm-170 359c6,48 34,81 85,186 16,34 36,115 41,142 6,28 10,61 10,71 0,9 4,73 4,73 0,0 -147,-64 -211,-111 -63,-48 -135,-115 -181,-154 -53,-46 -176,-199 -174,-320l-57 -54c0,0 -52,265 153,444 60,52 124,108 264,176 140,69 165,146 220,273 55,127 68,189 73,226 5,37 12,126 9,176 -2,48 -25,212 -25,212 0,0 53,-245 200,-346 0,0 -196,8 -147,-224l-7 -96c0,0 -3,-96 23,-205 19,-79 37,-191 43,-342 4,-95 -2,-140 -10,-226 -13,-134 -61,-328 -67,-351 -16,-68 -22,-79 -41,-132 -7,-19 -17,-82 -37,-83 -12,-1 -44,79 -44,79 0,0 -31,83 -37,106 -19,71 -38,117 -69,291 -5,29 -10,107 -13,116 -3,9 -7,55 -5,73z"/>
  <path class="fil2" d="M5502 3779c0,0 -22,-47 -42,-73 -43,-52 -57,-82 -224,-169 -167,-88 -227,-171 -319,-298 -28,-39 -114,-74 -130,-47 -14,23 54,116 79,167 32,63 44,103 145,178 108,80 183,83 254,107 102,34 237,135 237,135z"/>
  <path class="fil2" d="M5024 3019c5,14 41,93 130,211 134,178 349,263 349,263 -22,-109 -40,-165 -73,-223 -117,-199 -406,-257 -406,-257 0,0 -5,-8 0,6z"/>
  <path class="fil2" d="M5363 3099c17,-9 22,-146 22,-146l-18 -21 -94 -125c0,0 -36,-35 -72,-107 -15,-30 -28,-45 -15,-56 22,-17 48,31 71,62 34,48 130,185 130,185l28 -151 -236 -184c-4,33 -60,45 -60,45 -46,213 189,526 244,498z"/>
  <path class="fil2" d="M5378 3123c2,1 3,2 3,2 0,0 -2,-1 -3,-2z"/>
  <path class="fil2" d="M4971 2722c-47,38 -120,33 -120,33l37 60 14 24c0,0 80,110 127,127 21,7 94,22 167,55 83,39 -74,-73 -115,-298l-12 -102 -50 -10c0,0 5,69 -48,111z"/>
  <path class="fil2" d="M3988 2551c69,74 240,201 461,216 27,2 139,-21 139,-21 9,-65 71,-67 71,-67 0,0 -86,-3 -148,-5 -62,-2 -172,-4 -234,-34 -41,-19 -136,-79 -164,-95 -28,-17 -28,-59 22,-39 33,13 112,68 195,106 90,41 161,23 200,23 4,-12 -113,-39 -187,-88 -76,-50 -137,-135 -137,-135 0,0 -160,-2 -207,-10 -94,-14 -117,34 -11,149z"/>
  <path class="fil2" d="M5066 2571c0,0 -1,0 -2,0 -2,1 2,0 2,0z"/>
  <path class="fil2" d="M4574 2132c5,42 76,114 85,124 10,10 76,78 105,111 33,38 74,91 74,91l39 -5c2,-34 -46,-116 -52,-129 -6,-13 -111,-227 -148,-276 -38,-50 14,-57 36,-31 44,55 132,140 187,393 21,93 37,56 37,56 0,0 12,-25 17,-96 19,-250 -26,-271 -42,-302 -29,-56 -106,-114 -161,-135 -55,-21 -166,-54 -238,-79 -71,-25 -18,43 8,100 31,68 48,136 53,178z"/>
  <path class="fil2" d="M4299 2457c70,63 101,107 252,134 150,27 163,18 163,18 0,0 49,-8 11,-42 -38,-33 -118,-58 -144,-69 -26,-11 -76,-29 -123,-59 -24,-16 -85,-59 -137,-102 -43,-36 -97,-82 -106,-124 -8,-43 29,-49 104,30 43,46 72,70 99,90 79,60 114,77 193,123 42,25 146,59 146,59 0,0 31,-34 44,-37 0,0 -33,-78 -127,-153 -80,-64 -128,-151 -130,-152 0,0 -118,-18 -234,-53 -105,-32 -225,-145 -230,-95 -3,35 20,148 64,221 44,73 85,147 155,211z"/>
  <path class="fil2" d="M4826 2799c-2,55 -48,98 -104,96 -55,-1 -99,-47 -97,-102 2,-55 48,-98 103,-96 56,1 99,47 98,102z"/>
  <path class="fil2" d="M4979 2611c-2,59 -52,105 -111,104 -60,-2 -106,-51 -104,-110 1,-59 51,-105 110,-103 60,2 106,51 105,109z"/>
  <path class="fil2" d="M5929 3945c-2,59 -51,105 -111,103 -59,-1 -106,-51 -104,-109 2,-59 52,-105 111,-104 59,2 106,51 104,110z"/>
  <path class="fil2" d="M5889 5138c-2,59 -51,105 -111,103 -59,-2 -106,-51 -104,-110 2,-58 52,-105 111,-103 59,2 106,51 104,110z"/>
  <path class="fil2" d="M5301 6304c-1,59 -51,105 -110,103 -60,-2 -106,-51 -105,-110 2,-59 52,-105 111,-103 60,2 106,51 104,110z"/>
  <path class="fil2" d="M5497 5039c-2,53 -46,95 -100,93 -53,-2 -95,-46 -93,-99 1,-52 46,-94 99,-92 53,1 95,46 94,98z"/>
  <path class="fil2" d="M5208 5911c-2,59 -51,105 -111,103 -59,-2 -106,-51 -104,-110 2,-59 52,-105 111,-103 59,2 106,51 104,110z"/>
  <path class="fil2" d="M5180 2474c-2,55 -48,98 -103,96 -56,-1 -99,-47 -97,-102 1,-55 47,-98 103,-96 55,2 99,47 97,102z"/>
  <path class="fil2" d="M4705 6865c-29,23 -242,33 -481,27 -68,-2 -98,-28 -112,-30 -13,-2 0,0 0,0 84,3 251,-4 277,-7 135,-16 265,-13 300,-7 11,2 45,-5 16,17zm-641 -222c23,-50 78,-183 105,-236 33,-66 91,-142 133,-197 21,-29 176,-159 151,-123 -17,24 -40,39 -72,76 -27,30 -37,43 -72,90 -28,37 -78,121 -98,159 -18,36 -46,96 -71,146 -8,15 -27,71 -52,113 -13,22 -23,61 -50,64 0,0 -10,-16 26,-92zm921 191c0,0 -111,-20 -180,-47 -68,-26 -160,-40 -259,-41 -100,-1 -268,29 -353,37 -63,5 -23,-54 -11,-79 69,-143 220,-381 301,-512 47,-76 134,-232 114,-255 -9,-11 -201,80 -251,121 -58,48 -296,220 -411,617 -14,49 -53,83 -96,106 -4,0 -7,1 -11,2 -120,22 -301,51 -373,74 -38,13 -10,19 34,43 23,13 69,50 102,52 41,3 289,-36 357,-22 439,156 836,16 836,16 0,0 111,-43 175,-71 65,-28 26,-41 26,-41z"/>
  <path class="fil2" d="M4701 6232c19,-36 43,-79 71,-128 46,-83 57,-149 75,-136 17,13 -2,53 -26,125 -13,39 -71,148 -89,179 -18,30 -87,146 -214,305 -18,22 -123,99 -140,88 -13,-9 65,-58 121,-130 0,0 72,-97 105,-148 52,-82 84,-128 97,-155zm-440 450c-9,18 -72,73 9,55 80,-18 120,-16 189,-44 82,-33 134,-105 198,-165 63,-59 187,-243 209,-319 55,-197 125,-457 15,-453 -28,1 -93,138 -130,189 -25,36 -136,151 -162,185 -107,142 -287,469 -328,552z"/>
  <path class="fil2" d="M2828 7030c-77,37 -742,210 -626,230 17,3 297,-45 361,87 0,0 418,-198 444,-221 48,-41 -127,-121 -179,-96z"/>
  <path class="fil1" d="M3552 6963c-61,-32 -73,-41 -121,-67 -20,-11 -53,-22 -71,-24 -34,-4 -79,3 -105,10 -56,14 -114,33 -89,53 21,18 19,13 128,77 105,61 508,325 508,325 63,-132 326,-83 343,-86 108,-19 -334,-149 -593,-288z"/>
  <path class="fil2" d="M2151 7325c0,-27 50,-56 201,-43 100,9 164,30 165,84 0,20 -20,62 -218,58 -93,-2 -148,-66 -148,-99z"/>
  <path class="fil1" d="M4209 7315c0,-27 -78,-53 -201,-44 -100,7 -158,29 -164,84 -3,21 20,63 218,58 93,-2 148,-65 147,-98z"/>
  <polygon class="fil4" points="3121,3243 3436,4167 4408,4170 3629,4749 3924,5676 3130,5114 2342,5682 2631,4753 1846,4179 2818,4170 "/>
  <polygon class="fil0" points="38870,7650 39064,7650 39378,8138 39693,7650 39886,7650 39886,8683 39706,8683 39706,7942 39380,8429 39374,8429 39050,7945 39050,8683 38870,8683 "/>
  <path class="fil0" d="M40648 8534c51,0 98,-9 140,-29 43,-19 80,-45 110,-78 30,-33 54,-72 71,-116 17,-44 26,-91 26,-142l0 -3c0,-50 -9,-97 -26,-142 -17,-45 -41,-84 -72,-117 -31,-33 -68,-59 -111,-79 -43,-19 -90,-29 -141,-29 -51,0 -98,9 -140,29 -43,19 -80,45 -110,78 -30,33 -54,71 -71,116 -17,44 -26,91 -26,141l0 3c0,51 9,98 26,143 17,45 41,84 72,117 31,33 68,59 111,79 43,19 90,29 141,29zm-3 167c-80,0 -153,-14 -218,-42 -66,-28 -123,-66 -170,-114 -48,-49 -84,-105 -111,-170 -27,-64 -40,-133 -40,-206l0 -3c0,-72 13,-141 40,-206 27,-64 64,-121 112,-169 48,-49 105,-88 171,-116 66,-29 139,-43 219,-43 80,0 153,14 219,42 66,28 122,66 169,114 48,49 85,105 111,169 27,65 40,134 40,206l0 3c0,73 -13,142 -40,206 -26,65 -64,122 -112,170 -48,49 -105,88 -171,116 -66,29 -139,43 -219,43z"/>
  <polygon class="fil0" points="41661,7818 41333,7818 41333,7650 42172,7650 42172,7818 41844,7818 41844,8683 41661,8683 "/>
  <polygon class="fil0" points="42364,7650 43129,7650 43129,7814 42544,7814 42544,8079 43062,8079 43062,8243 42544,8243 42544,8519 43136,8519 43136,8683 42364,8683 "/>
  <polygon class="fil0" points="43353,7650 43521,7650 44074,8364 44074,7650 44254,7650 44254,8683 44102,8683 43533,7948 43533,8683 43353,8683 "/>
  <path class="fil0" d="M45016 8534c51,0 98,-9 140,-29 43,-19 80,-45 110,-78 30,-33 54,-72 71,-116 17,-44 26,-91 26,-142l0 -3c0,-50 -9,-97 -26,-142 -17,-45 -41,-84 -72,-117 -31,-33 -68,-59 -111,-79 -43,-19 -90,-29 -141,-29 -51,0 -98,9 -140,29 -43,19 -80,45 -110,78 -30,33 -54,71 -71,116 -17,44 -26,91 -26,141l0 3c0,51 9,98 26,143 17,45 41,84 72,117 31,33 68,59 111,79 43,19 90,29 141,29zm-3 167c-80,0 -153,-14 -218,-42 -66,-28 -123,-66 -170,-114 -48,-49 -84,-105 -111,-170 -27,-64 -40,-133 -40,-206l0 -3c0,-72 13,-141 40,-206 27,-64 64,-121 112,-169 48,-49 105,-88 171,-116 66,-29 139,-43 219,-43 80,0 153,14 219,42 66,28 122,66 169,114 48,49 85,105 111,169 27,65 40,134 40,206l0 3c0,73 -13,142 -40,206 -26,65 -64,122 -112,170 -48,49 -105,88 -171,116 -66,29 -139,43 -219,43z"/>
  <polygon class="fil0" points="45775,7650 45943,7650 46496,8364 46496,7650 46676,7650 46676,8683 46524,8683 45955,7948 45955,8683 45775,8683 "/>
  <path class="fil0" d="M47326 8519c54,0 103,-8 147,-26 44,-17 82,-41 113,-72 31,-31 55,-68 72,-111 18,-43 26,-90 26,-141l0 -3c0,-50 -8,-97 -26,-140 -17,-44 -41,-81 -72,-112 -31,-32 -69,-56 -113,-74 -44,-18 -93,-27 -147,-27l-204 0 0 706 204 0zm-384 -869l385 0c81,0 155,13 222,39 68,26 126,62 174,108 49,47 87,101 113,163 27,63 40,131 40,203l0 3c0,73 -13,141 -40,204 -26,63 -64,118 -113,164 -48,46 -106,83 -174,109 -67,27 -141,40 -222,40l-385 0 0 -1033z"/>
  <polygon class="fil0" points="48096,7650 48861,7650 48861,7814 48276,7814 48276,8079 48795,8079 48795,8243 48276,8243 48276,8519 48869,8519 48869,8683 48096,8683 "/>
  <polygon class="fil0" points="49086,7650 49266,7650 49266,8079 49762,8079 49762,7650 49942,7650 49942,8683 49762,8683 49762,8248 49266,8248 49266,8683 49086,8683 "/>
  <path class="fil0" d="M50834 8273l-179 -414 -177 414 356 0zm-260 -631l169 0 454 1041 -192 0 -104 -249 -489 0 -107 249 -186 0 455 -1041z"/>
  <path class="fil0" d="M40330 2118c163,-12 205,-24 244,-46 24,-15 40,-27 52,-27 15,0 45,39 33,82 -21,78 -58,259 -61,353 0,27 -21,88 -60,88 -21,0 -42,-16 -57,-94 -37,-181 -73,-214 -206,-214 -81,0 -247,3 -341,15 -21,3 -30,21 -30,36 0,139 -6,314 -6,573 0,348 6,686 18,855 6,78 33,148 245,190 42,9 69,48 69,63 0,25 -48,43 -81,43 -24,0 -444,-12 -498,-12 -67,0 -339,18 -393,18 -57,0 -97,-12 -97,-36 0,-34 40,-61 73,-70 187,-48 205,-81 217,-287 12,-178 27,-773 27,-1002 0,-172 -3,-296 -3,-347 0,-30 -27,-42 -36,-42 -54,-9 -250,-13 -326,-13 -15,0 -108,37 -139,70 -39,45 -69,103 -105,160 -40,60 -55,90 -70,90 -36,0 -51,-39 -51,-69 0,-57 51,-269 57,-411 0,-9 27,-66 52,-66 21,0 39,27 51,48 9,15 69,37 136,43 57,6 534,18 649,18 175,0 549,-3 637,-9z"/>
  <path class="fil0" d="M41912 2127c99,0 220,-15 262,-24 12,-3 36,21 39,42 3,12 3,281 3,341 0,42 -24,88 -51,88 -27,0 -54,-46 -60,-79 -39,-172 -133,-223 -190,-235 -46,-10 -136,-22 -417,-22 -12,0 -33,12 -36,88 -3,72 -12,423 -12,643 0,9 15,33 36,33l260 0c181,0 169,-15 226,-142 21,-45 42,-84 72,-84 28,0 37,51 34,93 -6,82 -12,136 -12,203 0,78 3,132 12,214 6,54 -15,94 -43,94 -24,0 -51,-37 -60,-70 -39,-127 -88,-157 -175,-166 -97,-9 -205,-9 -305,-9 -12,0 -45,36 -45,42 -9,97 -6,305 -3,393 3,63 -6,175 6,244 3,24 33,70 69,79 45,9 133,15 230,15 114,0 193,3 271,-30 88,-37 172,-118 233,-224 48,-81 78,-114 105,-114 37,0 28,69 28,90 0,24 -91,302 -118,362 -12,28 -70,43 -85,43 -33,0 -920,-12 -1017,-12 -220,0 -242,15 -344,15 -58,0 -109,-9 -109,-40 0,-30 39,-54 94,-66 154,-36 184,-72 196,-235 9,-124 24,-296 24,-668 0,-356 3,-528 -3,-616 -6,-99 -27,-169 -157,-190 -63,-12 -99,-24 -99,-60 0,-27 57,-45 96,-45 142,0 453,9 592,9l453 0z"/>
  <path class="fil0" d="M43681 2124c9,3 36,45 39,63 0,33 30,290 30,302 0,45 -12,72 -27,72 -27,0 -79,-27 -94,-72 -30,-97 -84,-181 -124,-214 -78,-70 -157,-94 -253,-94 -115,0 -290,103 -290,296 0,160 124,260 399,426 437,262 455,471 455,615 0,157 -93,345 -274,450 -103,64 -281,109 -429,109 -217,0 -314,-27 -453,-79 -21,-9 -81,-69 -84,-84 -28,-106 -55,-233 -55,-341 0,-21 37,-67 52,-67 27,0 75,70 123,163 97,194 260,296 429,296 109,0 290,-90 290,-271 0,-124 -64,-239 -320,-411 -335,-220 -492,-380 -492,-655 0,-187 96,-335 190,-408 106,-84 248,-145 498,-145 133,0 296,34 390,49z"/>
  <path class="fil0" d="M44982 3180c-43,-133 -163,-459 -212,-582 -6,-24 -27,-12 -36,12 -57,145 -196,504 -208,564 -6,21 12,37 24,37 115,-4 326,-7 420,-4 3,0 18,-12 12,-27zm-348 -1473c22,-18 34,-36 85,-36 133,0 420,27 501,27 54,0 82,-15 148,-109 9,-15 18,-24 33,-24 15,0 43,33 52,49 9,21 -7,45 -22,63 -51,51 -157,187 -205,226 -54,40 -48,34 -72,34 -106,0 -465,-55 -520,-37 -30,6 -78,49 -120,109 -12,21 -25,30 -34,30 -33,0 -60,-30 -60,-39 0,-12 15,-39 48,-97 37,-60 121,-163 166,-196zm387 429c30,66 84,232 115,320 169,480 365,1005 431,1168 97,242 172,278 260,305 51,15 81,36 81,57 0,21 -33,49 -99,49 -67,0 -329,-12 -405,-12 -99,0 -256,6 -335,6 -54,0 -96,-18 -96,-49 0,-15 21,-39 78,-54 118,-30 124,-72 124,-115 0,-54 -58,-211 -127,-404 -3,-12 -45,-52 -54,-52 -396,-3 -483,9 -517,9 -9,0 -27,22 -33,34 -102,259 -115,341 -115,392 0,73 37,109 139,136 64,15 88,30 88,63 0,22 -36,40 -94,40 -54,0 -129,-6 -241,-6 -118,0 -245,12 -290,12 -78,0 -97,-21 -97,-40 0,-24 10,-42 79,-60 154,-39 187,-106 272,-275 75,-142 395,-978 516,-1262 0,0 15,-39 18,-51 3,-9 12,-24 24,-39 36,-42 145,-160 166,-193 18,-28 42,-40 57,-40 19,0 31,3 55,61z"/>
  <path class="fil0" d="M46237 2456c-9,-145 -9,-193 -148,-230 -75,-21 -96,-42 -96,-66 0,-24 48,-45 109,-45 93,0 253,12 353,12 148,0 268,-12 374,-12 51,0 103,15 103,45 0,33 -49,57 -100,66 -139,25 -154,103 -160,182 -3,60 -9,126 -9,606 0,462 3,568 9,655 15,185 33,212 193,257 55,15 85,36 85,69 0,37 -64,43 -100,43 -102,-3 -305,-18 -453,-15 -87,0 -208,9 -320,9 -78,0 -102,-21 -102,-55 0,-21 27,-42 93,-60 133,-33 157,-106 163,-229 6,-121 12,-429 12,-686 0,-139 3,-422 -6,-546z"/>
  <path class="fil0" d="M48314 2969c218,0 613,-12 824,-12 9,0 21,-36 25,-73 5,-39 5,-371 -7,-489 -12,-108 -27,-141 -138,-172 -46,-12 -97,-33 -97,-63 0,-21 33,-45 106,-45 39,0 274,12 353,12 96,0 314,-12 350,-12 60,0 97,18 97,42 0,33 -31,51 -100,69 -103,25 -115,67 -124,157 -15,136 -24,381 -24,767 0,374 9,477 12,604 3,118 33,127 145,163 60,21 94,42 94,69 0,37 -49,46 -103,46 -51,0 -242,-9 -329,-9 -69,0 -317,12 -377,12 -85,0 -118,-18 -118,-46 0,-27 45,-54 90,-66 142,-36 145,-54 160,-284 10,-118 13,-438 6,-486 -3,-15 -12,-30 -21,-30 -132,0 -763,-6 -824,0 -18,3 -39,24 -39,42 -9,130 0,420 3,519 3,142 12,185 136,221 63,18 115,48 115,81 0,34 -64,46 -103,46 -21,0 -302,-9 -408,-9 -69,0 -238,12 -338,12 -84,0 -115,-18 -115,-43 0,-36 34,-54 94,-72 121,-33 151,-69 166,-199 15,-121 30,-622 30,-996 0,-112 3,-221 -3,-336 -6,-102 -36,-129 -123,-160 -73,-24 -112,-45 -112,-72 0,-33 39,-45 96,-45 82,0 272,15 354,15 123,0 283,-12 356,-12 63,0 99,12 99,42 0,33 -42,57 -108,72 -121,28 -127,88 -130,212 -3,111 -21,437 -9,501 3,9 18,27 39,27z"/>
  <path class="fil0" d="M50983 3180c-43,-133 -163,-459 -212,-582 -6,-24 -27,-12 -36,12 -57,145 -196,504 -208,564 -6,21 12,37 24,37 115,-4 326,-7 420,-4 3,0 18,-12 12,-27zm39 -1044c30,66 84,232 115,320 169,480 365,1005 431,1168 97,242 172,278 260,305 51,15 81,36 81,57 0,21 -33,49 -99,49 -67,0 -329,-12 -405,-12 -99,0 -256,6 -335,6 -54,0 -96,-18 -96,-49 0,-15 21,-39 78,-54 118,-30 124,-72 124,-115 0,-54 -57,-211 -127,-404 -3,-12 -45,-52 -54,-52 -396,-3 -483,9 -516,9 -10,0 -28,22 -34,34 -102,259 -114,341 -114,392 0,73 36,109 138,136 64,15 88,30 88,63 0,22 -36,40 -94,40 -54,0 -129,-6 -241,-6 -118,0 -245,12 -290,12 -78,0 -97,-21 -97,-40 0,-24 10,-42 79,-60 154,-39 187,-106 272,-275 75,-142 395,-978 516,-1262 0,0 15,-39 18,-51 3,-9 12,-24 24,-39 36,-42 145,-160 166,-193 18,-28 42,-40 58,-40 18,0 30,3 54,61z"/>
  <path class="fil0" d="M54059 2118c163,-12 205,-24 244,-46 24,-15 39,-27 52,-27 15,0 45,39 33,82 -21,78 -58,259 -61,353 0,27 -21,88 -60,88 -21,0 -42,-16 -57,-94 -37,-181 -73,-214 -206,-214 -81,0 -247,3 -341,15 -21,3 -30,21 -30,36 0,139 -6,314 -6,573 0,348 6,686 18,855 6,78 33,148 245,190 42,9 69,48 69,63 0,25 -48,43 -81,43 -25,0 -444,-12 -499,-12 -66,0 -338,18 -392,18 -57,0 -97,-12 -97,-36 0,-34 40,-61 73,-70 187,-48 205,-81 217,-287 12,-178 27,-773 27,-1002 0,-172 -3,-296 -3,-347 0,-30 -27,-42 -36,-42 -54,-9 -250,-13 -326,-13 -15,0 -109,37 -139,70 -39,45 -69,103 -105,160 -40,60 -55,90 -70,90 -36,0 -51,-39 -51,-69 0,-57 51,-269 57,-411 0,-9 27,-66 51,-66 22,0 40,27 52,48 9,15 69,37 136,43 57,6 534,18 649,18 175,0 549,-3 637,-9z"/>
  <path class="fil0" d="M55641 2127c99,0 220,-15 262,-24 12,-3 36,21 39,42 3,12 3,281 3,341 0,42 -24,88 -51,88 -27,0 -54,-46 -60,-79 -40,-172 -133,-223 -191,-235 -45,-10 -135,-22 -416,-22 -12,0 -33,12 -36,88 -3,72 -12,423 -12,643 0,9 15,33 36,33l259 0c182,0 169,-15 227,-142 21,-45 42,-84 72,-84 27,0 37,51 34,93 -7,82 -13,136 -13,203 0,78 4,132 13,214 6,54 -16,94 -43,94 -24,0 -51,-37 -60,-70 -39,-127 -88,-157 -175,-166 -97,-9 -205,-9 -305,-9 -12,0 -45,36 -45,42 -9,97 -6,305 -3,393 3,63 -6,175 6,244 3,24 33,70 69,79 45,9 133,15 230,15 114,0 193,3 271,-30 88,-37 172,-118 233,-224 48,-81 78,-114 105,-114 36,0 27,69 27,90 0,24 -90,302 -117,362 -12,28 -70,43 -85,43 -33,0 -921,-12 -1017,-12 -221,0 -242,15 -344,15 -58,0 -109,-9 -109,-40 0,-30 39,-54 94,-66 154,-36 184,-72 196,-235 9,-124 24,-296 24,-668 0,-356 3,-528 -3,-616 -6,-99 -27,-169 -157,-190 -63,-12 -100,-24 -100,-60 0,-27 58,-45 97,-45 142,0 453,9 592,9l453 0z"/>
  <path class="fil0" d="M56362 2118c72,0 238,9 332,9 91,0 278,-9 350,-9 64,0 103,18 103,45 0,30 -58,48 -79,54 -120,37 -142,46 -151,194 -6,114 -3,434 -3,606 0,18 6,21 21,21 19,0 52,-24 55,-27 109,-78 441,-416 613,-631 63,-75 75,-126 -64,-157 -39,-9 -78,-27 -78,-51 0,-21 24,-45 78,-45l133 0c248,0 408,-18 492,-18 64,0 91,15 91,39 0,24 -49,51 -121,63 -178,30 -299,142 -405,227 -102,81 -262,238 -437,422 -9,6 -6,24 -3,31 69,117 567,724 739,905 73,79 127,115 269,145 36,9 66,42 66,54 0,31 -60,52 -93,52 -82,0 -462,-24 -547,-24 -108,0 -202,9 -268,9 -52,0 -73,-21 -73,-49 0,-18 30,-33 148,-78 12,-6 3,-36 -3,-45 -96,-136 -359,-502 -486,-646 -78,-91 -87,-106 -102,-106 -19,0 -25,6 -25,75 0,320 12,505 15,613 0,42 19,88 142,121 55,15 91,36 91,63 0,27 -54,49 -103,49 -66,0 -284,-6 -377,-6 -94,0 -269,12 -365,12 -46,0 -85,-24 -85,-46 0,-27 24,-45 88,-60 151,-33 169,-81 181,-260 9,-138 6,-347 6,-670 0,-477 -6,-438 -9,-546 -3,-160 -24,-193 -139,-227 -82,-24 -91,-48 -91,-63 0,-27 49,-45 94,-45z"/>
  <path class="fil0" d="M59024 2329c-90,88 -199,299 -199,661 0,471 257,969 679,969 127,0 224,-69 266,-112 127,-135 220,-401 220,-709 0,-193 -69,-577 -289,-788 -94,-90 -245,-163 -375,-163 -139,0 -250,91 -302,142zm1437 715c0,381 -154,619 -359,794 -163,133 -422,239 -691,239 -320,0 -592,-115 -785,-314 -166,-172 -263,-408 -263,-694 0,-366 160,-595 384,-770 133,-103 383,-224 655,-224 709,0 1059,529 1059,969z"/>
  <path class="fil0" d="M39605 5071c-24,0 -69,19 -78,28 -9,9 -21,39 -24,108 -3,61 -3,432 -6,776 0,272 3,444 3,516 3,178 6,251 193,293 60,12 84,39 84,67 0,24 -48,45 -90,45 -79,0 -284,-18 -414,-18 -90,0 -250,9 -341,9 -81,0 -127,-12 -127,-51 0,-22 49,-49 79,-58 136,-33 175,-72 187,-217 9,-109 18,-281 18,-435 0,-97 0,-791 -6,-869 -9,-106 -36,-157 -199,-178 -30,-3 -61,-28 -61,-46 0,-24 28,-45 64,-51 18,-3 72,-3 99,-3 227,0 480,-27 613,-27 293,0 501,45 628,175 142,139 175,299 175,407 0,236 -102,375 -190,450 -78,67 -260,136 -371,136 -33,0 -121,-6 -154,-18 -45,-21 -70,-36 -70,-66 0,-13 25,-34 49,-34l30 0c112,0 281,-157 281,-453 0,-226 -142,-486 -372,-486z"/>
  <path class="fil0" d="M41326 5192c-91,88 -199,299 -199,661 0,471 256,969 679,969 127,0 223,-69 266,-111 126,-136 220,-402 220,-710 0,-193 -69,-576 -290,-788 -93,-90 -244,-163 -374,-163 -139,0 -251,91 -302,142zm1437 716c0,380 -154,619 -359,794 -163,132 -423,238 -692,238 -320,0 -591,-115 -785,-314 -166,-172 -262,-407 -262,-694 0,-365 160,-595 383,-770 133,-103 384,-223 655,-223 710,0 1060,528 1060,969z"/>
  <path class="fil0" d="M44028 5177c-70,-72 -145,-100 -218,-100 -12,0 -81,10 -102,22 -12,9 -31,45 -34,63 -9,100 -24,601 -12,694 3,15 25,31 37,31 145,0 274,-43 302,-61 81,-63 153,-160 153,-320 0,-81 -15,-214 -126,-329zm359 646c-12,12 -79,45 -133,73 -15,6 -9,27 -3,39 69,145 317,564 453,727 81,94 169,121 241,136 31,6 58,30 58,42 0,19 -30,43 -55,49 -51,21 -190,27 -217,27 -338,0 -432,-124 -483,-196 -72,-103 -229,-356 -359,-589 -18,-33 -55,-97 -82,-115 -27,-18 -72,-39 -111,-39 -9,0 -31,12 -34,27 -6,64 -3,474 6,598 13,133 28,157 163,193 52,15 76,36 76,61 0,33 -57,48 -103,48 -99,0 -268,-18 -386,-18 -133,0 -281,12 -314,12 -91,0 -103,-24 -103,-51 0,-16 36,-40 76,-52 142,-42 166,-87 172,-175 24,-296 18,-522 18,-812 0,-254 -6,-501 -12,-568 -6,-54 -30,-117 -175,-150 -43,-9 -79,-34 -79,-58 0,-21 49,-48 91,-48l247 0c109,0 381,-15 544,-15 102,0 383,6 540,136 88,72 157,217 157,353 0,163 -69,256 -193,365z"/>
  <path class="fil0" d="M45984 6044c-42,-133 -163,-459 -212,-583 -6,-24 -27,-12 -36,12 -57,145 -196,504 -208,564 -6,22 12,37 24,37 115,-3 326,-6 420,-3 3,0 18,-12 12,-27zm-347 -1474c21,-18 33,-36 84,-36 133,0 420,27 501,27 55,0 82,-15 148,-108 9,-16 18,-25 33,-25 16,0 43,34 52,49 9,21 -6,45 -21,63 -52,51 -157,187 -206,227 -54,39 -48,33 -72,33 -106,0 -465,-55 -519,-36 -31,6 -79,48 -121,108 -12,21 -24,30 -33,30 -34,0 -61,-30 -61,-39 0,-12 15,-39 49,-96 36,-61 120,-163 166,-197zm386 429c30,66 85,232 115,320 169,480 365,1005 431,1168 97,242 173,278 260,305 51,15 82,36 82,58 0,21 -34,48 -100,48 -66,0 -329,-12 -405,-12 -99,0 -256,6 -335,6 -54,0 -96,-18 -96,-48 0,-16 21,-40 78,-55 118,-30 124,-72 124,-115 0,-54 -57,-211 -127,-404 -3,-12 -45,-51 -54,-51 -396,-3 -483,9 -516,9 -9,0 -28,21 -34,33 -102,259 -114,341 -114,392 0,73 36,109 139,136 63,15 87,30 87,64 0,21 -36,39 -93,39 -55,0 -130,-6 -242,-6 -118,0 -244,12 -290,12 -78,0 -96,-21 -96,-39 0,-25 9,-43 78,-61 154,-39 187,-105 272,-274 75,-142 395,-979 516,-1262 0,0 15,-40 18,-52 3,-9 12,-24 24,-39 37,-42 145,-160 166,-193 18,-27 43,-39 58,-39 18,0 30,3 54,60z"/>
  <path class="fil0" d="M46947 4975c60,0 232,15 380,15 103,0 317,-9 386,-9 40,0 73,18 73,39 0,27 -21,51 -76,67 -123,39 -123,69 -90,175 42,142 362,923 417,1017 6,9 24,0 27,-3 24,-39 338,-770 407,-966 64,-181 -18,-181 -133,-229 -30,-13 -69,-37 -69,-55 0,-21 30,-48 78,-48 109,0 166,12 266,12 88,0 208,-12 272,-12 54,0 90,18 90,45 0,27 -27,48 -81,60 -136,34 -199,88 -281,260 -33,73 -272,553 -453,996 -63,148 -142,360 -199,523 -12,33 -57,84 -87,84 -43,0 -73,-66 -76,-81 -15,-55 -72,-227 -157,-447 -103,-275 -311,-746 -459,-1099 -63,-142 -99,-199 -238,-238 -37,-10 -82,-22 -82,-58 0,-27 39,-48 85,-48z"/>
  <path class="fil0" d="M50189 4990c99,0 220,-15 262,-24 13,-3 37,21 40,42 3,12 3,281 3,341 0,42 -24,88 -52,88 -27,0 -54,-46 -60,-79 -39,-172 -133,-223 -190,-235 -45,-9 -136,-21 -417,-21 -12,0 -33,12 -36,87 -3,73 -12,423 -12,643 0,9 15,33 36,33l260 0c181,0 169,-15 226,-141 21,-46 43,-85 73,-85 27,0 36,51 33,94 -6,81 -12,135 -12,202 0,78 3,133 12,214 6,55 -15,94 -42,94 -25,0 -52,-36 -61,-70 -39,-126 -87,-157 -175,-166 -96,-9 -205,-9 -305,-9 -12,0 -45,36 -45,43 -9,96 -6,304 -3,392 3,63 -6,175 6,244 3,25 33,70 69,79 46,9 133,15 230,15 115,0 193,3 272,-30 87,-36 172,-118 232,-224 48,-81 78,-114 106,-114 36,0 27,69 27,90 0,24 -91,302 -118,363 -12,27 -69,42 -84,42 -34,0 -921,-12 -1018,-12 -220,0 -241,15 -344,15 -57,0 -109,-9 -109,-39 0,-31 40,-55 94,-67 154,-36 184,-72 196,-235 9,-124 24,-296 24,-667 0,-357 3,-529 -3,-616 -6,-100 -27,-169 -157,-190 -63,-13 -99,-25 -99,-61 0,-27 57,-45 96,-45 142,0 453,9 592,9l453 0z"/>
  <path class="fil0" d="M39247 865c69,0 124,-17 164,-52 40,-34 60,-79 60,-133l0 -3c0,-61 -21,-107 -61,-139 -41,-31 -95,-46 -163,-46l-212 0 0 373 212 0zm-392 -537l407 0c61,0 115,8 164,24 48,16 90,40 124,70 34,31 60,67 78,110 18,42 27,89 27,141l0 3c0,58 -11,109 -32,153 -22,44 -52,81 -89,110 -38,30 -82,52 -132,67 -50,16 -104,23 -161,23l-206 0 0 332 -180 0 0 -1033z"/>
  <path class="fil0" d="M40467 951l-178 -413 -177 413 355 0zm-259 -631l168 0 455 1042 -192 0 -105 -250 -489 0 -106 250 -186 0 455 -1042z"/>
  <path class="fil0" d="M41455 840c65,0 117,-15 155,-46 39,-32 58,-74 58,-127l0 -3c0,-57 -19,-99 -56,-129 -38,-29 -91,-43 -159,-43l-265 0 0 348 267 0zm-447 -512l461 0c65,0 122,9 172,27 51,18 92,44 126,76 27,29 49,62 63,99 15,38 22,79 22,124l0 3c0,42 -6,81 -18,115 -12,34 -29,64 -51,90 -22,26 -47,48 -77,66 -30,18 -64,32 -100,42l279 391 -214 0 -255 -360 -3 0 -225 0 0 360 -180 0 0 -1033z"/>
  <path class="fil0" d="M42702 951l-179 -413 -177 413 356 0zm-260 -631l168 0 455 1042 -192 0 -105 -250 -489 0 -106 250 -186 0 455 -1042z"/>
  <path class="fil0" d="M43732 1379c-80,0 -154,-13 -220,-40 -66,-27 -122,-65 -169,-113 -47,-47 -83,-103 -108,-168 -26,-64 -39,-135 -39,-210l0 -3c0,-72 13,-141 40,-206 26,-65 63,-121 110,-170 48,-49 105,-88 170,-116 65,-29 137,-43 215,-43 45,0 86,3 123,10 37,6 71,15 103,27 31,12 61,26 89,44 28,17 55,37 82,59l-115 138c-20,-17 -40,-32 -61,-46 -20,-14 -42,-25 -65,-35 -22,-9 -47,-16 -74,-22 -27,-5 -57,-8 -90,-8 -47,0 -91,10 -132,30 -41,19 -76,46 -106,79 -30,33 -54,71 -71,116 -17,44 -26,91 -26,140l0 3c0,54 9,103 25,148 17,46 41,85 72,117 31,33 67,58 110,77 43,19 91,28 144,28 49,0 95,-7 138,-21 42,-15 79,-34 111,-57l0 -195 -265 0 0 -158 440 0 0 434c-25,22 -53,43 -84,62 -31,20 -65,37 -101,52 -36,15 -74,26 -116,35 -41,8 -84,12 -130,12z"/>
  <path class="fil0" d="M44824 1378c-67,0 -128,-10 -182,-29 -54,-19 -100,-48 -139,-86 -38,-39 -68,-86 -88,-143 -21,-57 -31,-122 -31,-197l0 -595 180 0 0 588c0,96 23,169 69,220 47,50 111,75 194,75 81,0 145,-24 191,-72 47,-49 70,-121 70,-216l0 -595 180 0 0 586c0,77 -11,144 -32,202 -21,58 -51,107 -89,146 -38,39 -85,68 -140,87 -54,19 -115,29 -183,29z"/>
  <path class="fil0" d="M46051 0l162 72 -180 170 -139 0 157 -242zm93 951l-179 -413 -177 413 356 0zm-260 -631l168 0 455 1041 -192 0 -105 -249 -489 0 -106 249 -186 0 455 -1041z"/>
  <polygon class="fil0" points="46695,328 46875,328 46875,1361 46695,1361 "/>
 </g>
</svg>
