<?xml version="1.0" encoding="UTF-8"?>
<!DOCTYPE svg PUBLIC "-//W3C//DTD SVG 1.1//EN" "http://www.w3.org/Graphics/SVG/1.1/DTD/svg11.dtd">
<!-- Creator: CorelDRAW X7 -->
<svg xmlns="http://www.w3.org/2000/svg" xml:space="preserve" width="142.451mm" height="76.0834mm" version="1.1" style="shape-rendering:geometricPrecision; text-rendering:geometricPrecision; image-rendering:optimizeQuality; fill-rule:evenodd; clip-rule:evenodd"
viewBox="0 0 2382 1272"
 xmlns:xlink="http://www.w3.org/1999/xlink">
 <defs>
  <style type="text/css">
   <![CDATA[
    .fil0 {fill:#FEFEFE}
    .fil1 {fill:#CE68A7;fill-rule:nonzero}
   ]]>
  </style>
     <clipPath id="id0">
      <rect x="319" y="176" width="724" height="940"/>
     </clipPath>
     <clipPath id="id1">
      <rect x="1167" y="156" width="963" height="940"/>
     </clipPath>
 </defs>
 <g id="Layer_x0020_1">
  <metadata id="CorelCorpID_0Corel-Layer"/>
  <g id="_1881968274720">
   <g>
    <path class="fil0" d="M191 17l2000 0c95,0 174,78 174,174l0 890c0,96 -79,174 -174,174l-2000 0c-96,0 -174,-78 -174,-174l0 -890c0,-96 78,-174 174,-174z"/>
    <path id="1" class="fil1" d="M362 0l0 33 -171 0 0 -33 171 0zm68 0l0 33 -34 0 0 -33 34 0zm69 0l0 33 -34 0 0 -33 34 0zm205 0l0 33 -171 0 0 -33 171 0zm68 0l0 33 -34 0 0 -33 34 0zm69 0l0 33 -34 0 0 -33 34 0zm205 0l0 33 -171 0 0 -33 171 0zm68 0l0 33 -34 0 0 -33 34 0zm69 0l0 33 -34 0 0 -33 34 0zm205 0l0 33 -171 0 0 -33 171 0zm68 0l0 33 -34 0 0 -33 34 0zm69 0l0 33 -34 0 0 -33 34 0zm205 0l0 33 -171 0 0 -33 171 0zm68 0l0 33 -34 0 0 -33 34 0zm69 0l0 33 -34 0 0 -33 34 0zm205 0l0 33 -171 0 0 -33 171 0zm69 0l0 33 -35 0 0 -33 35 0zm50 33l-16 0 0 -33 16 0 0 0 0 33zm20 -32l-4 33 0 0 -8 0 -8 -1 0 -33 9 0 10 1 1 0zm162 134l-32 10 -1 -1 -2 -7 -3 -8 -3 -7 -4 -6 -3 -7 -5 -6 -4 -6 -5 -6 -5 -6 -5 -6 -5 -5 -6 -5 -6 -4 -6 -5 -6 -4 -7 -4 -7 -3 -7 -3 -7 -3 -7 -2 11 -32 8 3 9 3 8 4 9 4 8 5 7 5 8 5 7 6 7 6 7 6 6 7 6 7 6 7 5 7 5 8 5 8 4 8 4 9 3 8 3 9 0 1zm9 56l-35 0 0 0 0 -9 0 -8 0 1 33 -5 1 1 0 10 1 10 0 0zm0 15l-35 0 0 -15 35 0 0 15zm0 67l-35 0 0 -33 35 0 0 33zm0 201l-35 0 0 -168 35 0 0 168zm0 66l-35 0 0 -33 35 0 0 33zm0 67l-35 0 0 -33 35 0 0 33zm0 201l-35 0 0 -167 35 0 0 167zm0 67l-35 0 0 -34 35 0 0 34zm0 67l-35 0 0 -34 35 0 0 34zm-35 139l0 -106 35 0 0 106 0 0 -35 0zm23 66l-32 -12 0 0 2 -7 2 -7 2 -8 2 -8 1 -7 0 -8 0 -9 35 0 -1 10 0 10 -2 9 -1 10 -2 9 -3 9 -3 9 0 0zm-38 62l-26 -22 0 0 5 -6 5 -6 4 -6 5 -6 -1 0 30 16 0 1 -5 8 -5 7 -6 7 -6 7 0 0zm-59 44l-16 -30 1 0 7 -3 7 -4 6 -4 6 -4 20 26 -7 5 -7 5 -8 5 -9 4 0 0zm-82 19l0 -33 0 0 8 -1 8 0 7 -1 8 -2 7 -1 8 32 -8 2 -9 2 -10 1 -10 1 -9 0 0 0zm-129 0l0 -33 129 0 0 33 -129 0zm-68 0l0 -33 34 0 0 33 -34 0zm-68 0l0 -33 34 0 0 33 -34 0zm-206 0l0 -33 171 0 0 33 -171 0zm-68 0l0 -33 34 0 0 33 -34 0zm-68 0l0 -33 34 0 0 33 -34 0zm-206 0l0 -33 171 0 0 33 -171 0zm-68 0l0 -33 34 0 0 33 -34 0zm-68 0l0 -33 34 0 0 33 -34 0zm-206 0l0 -33 171 0 0 33 -171 0zm-68 0l0 -33 34 0 0 33 -34 0zm-69 0l0 -33 35 0 0 33 -35 0zm-205 0l0 -33 171 0 0 33 -171 0zm-68 0l0 -33 34 0 0 33 -34 0zm-69 0l0 -33 35 0 0 33 -35 0zm-205 0l0 -33 171 0 0 33 -171 0zm-68 0l0 -33 34 0 0 33 -34 0zm-69 0l0 -33 35 0 0 33 -35 0zm-188 -93l29 -17 1 1 4 6 5 6 4 6 5 6 5 6 6 5 6 5 5 4 7 5 6 4 7 4 6 3 7 3 7 3 8 3 7 2 8 1 7 2 8 1 7 0 -2 34 -9 -1 -9 -1 -10 -2 -9 -2 -9 -3 -9 -3 -8 -3 -9 -4 -8 -4 -8 -5 -8 -5 -7 -5 -8 -6 -6 -6 -7 -6 -6 -7 -6 -7 -6 -7 -5 -7 -5 -8 -1 -1zm-25 -69l34 -5 0 0 1 8 2 8 2 7 2 6 -32 12 -2 -8 -3 -9 -2 -9 -2 -10 0 0zm-2 -69l34 0 0 33 -34 0 0 -33zm0 -201l34 0 0 167 -34 0 0 -167zm0 -67l34 0 0 34 -34 0 0 -34zm0 -67l34 0 0 34 -34 0 0 -34zm0 -200l34 0 0 167 -34 0 0 -167zm0 -67l34 0 0 33 -34 0 0 -33zm0 -67l34 0 0 34 -34 0 0 -34zm34 -181l0 148 -34 0 0 -148 0 0 34 0zm-33 -21l34 3 0 1 -1 8 0 9 -34 0 0 -10 1 -10 0 -1zm22 -69l31 14 -4 7 -3 7 -3 8 -3 7 -32 -10 3 -9 3 -8 4 -9 4 -7zm47 -58l22 26 0 0 -6 5 -6 5 -5 6 -5 6 -26 -21 6 -7 6 -7 7 -6 6 -6 1 -1zm121 -43l0 33 0 0 -8 1 -8 0 -8 1 -7 2 -8 1 -7 2 -8 3 -7 3 -7 3 -6 3 -16 -29 7 -4 9 -4 8 -3 9 -3 9 -3 9 -2 10 -2 9 -1 10 -1 10 0 0 0z"/>
   </g>
   <g id="_1881968274272">
    <g style="clip-path:url(#id0)">
     <image x="319" y="176" width="724" height="940" xlink:href="upe-facool_Images\upe-facool_ImgID1.png"/>
    </g>
    <g style="clip-path:url(#id1)">
     <image x="1167" y="156" width="963" height="940" xlink:href="upe-facool_Images\upe-facool_ImgID2.png"/>
    </g>
   </g>
  </g>
 </g>
</svg>
